<svg id="visual" viewBox="0 0 900 600" width="900" height="600" xmlns="http://www.w3.org/2000/svg" xmlns:xlink="http://www.w3.org/1999/xlink" version="1.1"><rect x="0" y="0" width="900" height="600" fill="#e89d38"></rect><path d="M0 440L129 398L257 393L386 440L514 435L643 413L771 372L900 422L900 601L771 601L643 601L514 601L386 601L257 601L129 601L0 601Z" fill="#f5730a"></path><path d="M0 424L129 448L257 408L386 397L514 444L643 441L771 413L900 477L900 601L771 601L643 601L514 601L386 601L257 601L129 601L0 601Z" fill="#da5b09"></path><path d="M0 457L129 505L257 480L386 485L514 437L643 501L771 461L900 440L900 601L771 601L643 601L514 601L386 601L257 601L129 601L0 601Z" fill="#be4407"></path><path d="M0 502L129 503L257 506L386 514L514 522L643 538L771 538L900 485L900 601L771 601L643 601L514 601L386 601L257 601L129 601L0 601Z" fill="#a32d04"></path><path d="M0 570L129 566L257 562L386 572L514 532L643 551L771 534L900 526L900 601L771 601L643 601L514 601L386 601L257 601L129 601L0 601Z" fill="#871400"></path></svg>