<svg id="visual" viewBox="0 0 960 540" width="960" height="540" xmlns="http://www.w3.org/2000/svg" xmlns:xlink="http://www.w3.org/1999/xlink" version="1.1"><rect x="0" y="0" width="960" height="540" fill="#86b3dd"></rect><path d="M0 316L137 396L274 339L411 333L549 380L686 334L823 389L960 385L960 541L823 541L686 541L549 541L411 541L274 541L137 541L0 541Z" fill="#374e77"></path><path d="M0 401L137 397L274 421L411 400L549 380L686 429L823 397L960 411L960 541L823 541L686 541L549 541L411 541L274 541L137 541L0 541Z" fill="#223b62"></path><path d="M0 405L137 423L274 413L411 424L549 424L686 424L823 440L960 459L960 541L823 541L686 541L549 541L411 541L274 541L137 541L0 541Z" fill="#08294e"></path><path d="M0 479L137 451L274 449L411 488L549 473L686 477L823 447L960 447L960 541L823 541L686 541L549 541L411 541L274 541L137 541L0 541Z" fill="#00193b"></path><path d="M0 500L137 485L274 474L411 496L549 510L686 509L823 479L960 480L960 541L823 541L686 541L549 541L411 541L274 541L137 541L0 541Z" fill="#000000"></path></svg>